<mxfile host="0ad6dcbb-2bb8-4cba-8edd-8753461fef05" modified="2020-09-11T05:52:42.561Z" agent="5.0 (X11; Linux x86_64) AppleWebKit/537.36 (KHTML, like Gecko) Code/1.49.0 Chrome/83.0.4103.122 Electron/9.2.1 Safari/537.36" etag="k5Hx0_7yv6882KpcuE4s" version="13.1.3">
    <diagram id="6hGFLwfOUW9BJ-s0fimq" name="Page-1">
        <mxGraphModel dx="1590" dy="1140" grid="1" gridSize="10" guides="1" tooltips="1" connect="1" arrows="1" fold="1" page="1" pageScale="1" pageWidth="827" pageHeight="1169" math="0" shadow="0">
            <root>
                <mxCell id="0"/>
                <mxCell id="1" parent="0"/>
                <mxCell id="19" style="edgeStyle=orthogonalEdgeStyle;rounded=0;orthogonalLoop=1;jettySize=auto;html=1;entryX=0;entryY=0.5;entryDx=0;entryDy=0;" parent="1" source="2" target="14" edge="1">
                    <mxGeometry relative="1" as="geometry">
                        <Array as="points">
                            <mxPoint x="90" y="205"/>
                        </Array>
                    </mxGeometry>
                </mxCell>
                <mxCell id="2" value="src/mobile/index.js" style="rounded=0;whiteSpace=wrap;html=1;" parent="1" vertex="1">
                    <mxGeometry x="30" y="135" width="120" height="20" as="geometry"/>
                </mxCell>
                <mxCell id="4" value="移动端" style="rounded=0;whiteSpace=wrap;html=1;verticalAlign=top;" parent="1" vertex="1">
                    <mxGeometry width="680" height="80" as="geometry"/>
                </mxCell>
                <mxCell id="18" style="edgeStyle=orthogonalEdgeStyle;rounded=0;orthogonalLoop=1;jettySize=auto;html=1;" parent="1" source="5" target="14" edge="1">
                    <mxGeometry relative="1" as="geometry"/>
                </mxCell>
                <mxCell id="5" value="src/mobile/index.android.js" style="rounded=0;whiteSpace=wrap;html=1;" parent="1" vertex="1">
                    <mxGeometry x="241.5" y="125.25" width="177" height="34.75" as="geometry"/>
                </mxCell>
                <mxCell id="8" value="" style="edgeStyle=orthogonalEdgeStyle;rounded=0;orthogonalLoop=1;jettySize=auto;html=1;entryX=0.5;entryY=0;entryDx=0;entryDy=0;" parent="1" source="6" target="5" edge="1">
                    <mxGeometry relative="1" as="geometry">
                        <mxPoint x="330" y="160" as="targetPoint"/>
                    </mxGeometry>
                </mxCell>
                <mxCell id="6" value="安卓端入口" style="rounded=0;whiteSpace=wrap;html=1;" parent="1" vertex="1">
                    <mxGeometry x="270" y="50" width="120" height="30" as="geometry"/>
                </mxCell>
                <mxCell id="10" value="src/mobile/src/libs" style="rounded=0;whiteSpace=wrap;html=1;" parent="1" vertex="1">
                    <mxGeometry x="890" y="125.25" width="110" height="30" as="geometry"/>
                </mxCell>
                <mxCell id="11" value="移动端通用库提取" style="text;html=1;strokeColor=none;fillColor=none;align=center;verticalAlign=middle;whiteSpace=wrap;rounded=0;" parent="1" vertex="1">
                    <mxGeometry x="925" y="175.25" width="40" height="20" as="geometry"/>
                </mxCell>
                <mxCell id="12" value="src/mobile/src/ui/components" style="rounded=0;whiteSpace=wrap;html=1;" parent="1" vertex="1">
                    <mxGeometry x="1052.5" y="127.75" width="190" height="25" as="geometry"/>
                </mxCell>
                <mxCell id="13" value="项目中可通用以及认为可通用的组件库" style="text;html=1;strokeColor=none;fillColor=none;align=center;verticalAlign=middle;whiteSpace=wrap;rounded=0;" parent="1" vertex="1">
                    <mxGeometry x="1035" y="175.25" width="225" height="20" as="geometry"/>
                </mxCell>
                <mxCell id="14" value="src/mobile/src/ui/routes/entry.js" style="rounded=0;whiteSpace=wrap;html=1;" parent="1" vertex="1">
                    <mxGeometry x="230" y="190" width="200" height="30" as="geometry"/>
                </mxCell>
                <mxCell id="15" value="项目的初始化阶段&lt;br&gt;提供各个阶段的初始化" style="text;html=1;strokeColor=none;fillColor=none;align=center;verticalAlign=middle;whiteSpace=wrap;rounded=0;" parent="1" vertex="1">
                    <mxGeometry x="270" y="230" width="130" height="20" as="geometry"/>
                </mxCell>
                <mxCell id="20" value="src/mobile/src/ui/routes/navigation.js" style="rounded=0;whiteSpace=wrap;html=1;" parent="1" vertex="1">
                    <mxGeometry x="215" y="400" width="230" height="27.5" as="geometry"/>
                </mxCell>
                <mxCell id="21" value="路由的初始化，但是根路由不是在这里" style="text;html=1;strokeColor=none;fillColor=none;align=center;verticalAlign=middle;whiteSpace=wrap;rounded=0;" parent="1" vertex="1">
                    <mxGeometry x="217.5" y="437.5" width="225" height="20" as="geometry"/>
                </mxCell>
                <mxCell id="22" value="动画系统" style="text;html=1;strokeColor=none;fillColor=none;align=center;verticalAlign=middle;whiteSpace=wrap;rounded=0;fontSize=20;rotation=0;" parent="1" vertex="1">
                    <mxGeometry x="890" y="480" width="190" height="90" as="geometry"/>
                </mxCell>
                <mxCell id="23" value="src/mobile/src/ui/components/AnimatedComponent.js" style="rounded=0;whiteSpace=wrap;html=1;fontSize=12;" parent="1" vertex="1">
                    <mxGeometry x="890" y="570" width="310" height="30" as="geometry"/>
                </mxCell>
                <mxCell id="27" value="src/shared/storage" style="rounded=0;whiteSpace=wrap;html=1;" vertex="1" parent="1">
                    <mxGeometry x="220.75" y="310" width="218.5" height="30" as="geometry"/>
                </mxCell>
                <mxCell id="28" value="初始化存储（不知道干啥的）" style="text;html=1;strokeColor=none;fillColor=none;align=center;verticalAlign=middle;whiteSpace=wrap;rounded=0;" vertex="1" parent="1">
                    <mxGeometry x="256.75" y="350" width="170" height="20" as="geometry"/>
                </mxCell>
            </root>
        </mxGraphModel>
    </diagram>
</mxfile>
